<svg xmlns="http://www.w3.org/2000/svg" width="430" height="430" fill="none" viewBox="0 0 430 430"><g stroke-linecap="round" stroke-linejoin="round" stroke-miterlimit="18" stroke-width="18"><path stroke="#121331" d="M171.4 77.7C174.5 55.9 193.3 39 216 39c21.2 0 43.7 17.6 43.7 41.8M98.4 89.7c0 4.9.1 14.4.1 21.7l-.2 251.9c0 14.9 12.1 27 27 27h181c14.9 0 27-12.1 26.9-27l-.5-250.2c0-9.2 0-17.5-.1-22.6"/><path stroke="#6c16c7" d="M157.3 156.8v155.9m58.6-155.9v155.9m58.5-155.9v155.9M76 83.6l278.8.8"/></g></svg>